<mxfile host="app.diagrams.net" modified="2023-09-14T12:16:52.703Z" agent="Mozilla/5.0 (Windows NT 10.0; Win64; x64) AppleWebKit/537.36 (KHTML, like Gecko) Chrome/116.0.0.0 Safari/537.36" version="21.6.8" etag="FGQ17-JKGZdUE_QUpiLV" type="github">
  <diagram name="第 1 页" id="PVsgXUun14Zcc-LCiny7">
    <mxGraphModel>
      <root>
        <mxCell id="0" />
        <mxCell id="1" parent="0" />
      </root>
    </mxGraphModel>
  </diagram>
</mxfile>
